<svg id="Layer_1" data-name="Layer 1" xmlns="http://www.w3.org/2000/svg" viewBox="0 0 200 200"><defs><style>.cls-1{fill:#ea4100;}.cls-2{fill:#fff;}</style></defs><circle class="cls-1" cx="100" cy="100" r="99.33"/><path class="cls-2" d="M86.82,69.3V87.71H68.41V69.3H86.82m6.7-8.7H61.7a2,2,0,0,0-2,2V94.42a2,2,0,0,0,2,2H93.52a2,2,0,0,0,2-2V62.6a2,2,0,0,0-2-2Z"/><path class="cls-2" d="M131.59,69.3V87.71H113.18V69.3h18.41m6.71-8.7H106.48a2,2,0,0,0-2,2V94.42a2,2,0,0,0,2,2H138.3a2,2,0,0,0,2-2V62.6a2,2,0,0,0-2-2Z"/><path class="cls-2" d="M86.82,112.29V130.7H68.41V112.29H86.82m6.7-8.71H61.7a2,2,0,0,0-2,2V137.4a2,2,0,0,0,2,2H93.52a2,2,0,0,0,2-2V105.58a2,2,0,0,0-2-2Z"/><path class="cls-2" d="M131.59,112.29V130.7H113.18V112.29h18.41m6.71-8.71H106.48a2,2,0,0,0-2,2V137.4a2,2,0,0,0,2,2H138.3a2,2,0,0,0,2-2V105.58a2,2,0,0,0-2-2Z"/></svg>